<svg viewBox="0 0 16 16" xmlns="http://www.w3.org/2000/svg">
    <style type="text/css" id="current-color-scheme">
        .ColorScheme-PositiveText {
            color:#27ae60;
        }
        .ColorScheme-Text {
            color:#232629;
        }
    </style>
    <g class="ColorScheme-Text" fill="currentColor">
        <path d="m2 0c-1.108 0-2 .892-2 2v12c0 1.108.892 2 2 2h12c1.108 0 2-.892 2-2v-12c0-1.108-.892-2-2-2zm0 1h12c.554 0 1 .446 1 1v12c0 .554-.446 1-1 1h-12c-.554 0-1-.446-1-1v-12c0-.554.446-1 1-1z"/>
        <text x="9.000005" y="37.25"><tspan class="ColorScheme-Text" fill="currentColor" x="9.000005" y="37.25"/></text>
        <path d="m3 4v7h-1c0 .554.446 1 1 1h10c.554 0 1-.446 1-1h-1v-7zm1 1h8v5h-8z"/>
    </g>
</svg>
