<svg viewBox="0 0 22 22" xmlns="http://www.w3.org/2000/svg">
    <g fill="#ccc">
        <path d="m-.000052-.000071h22.000002v21.999971h-22.000002z" opacity=".01"/>
        <path d="m4.99995 2.9999v16h12v-16zm1 1h10v14h-10z"/>
        <g transform="matrix(1.4545461 0 0 1.4545461 -1148.3143 -2626.5388)">
            <path d="m789.4657 1781.6821h22.000002v21.999971h-22.000002z" opacity=".01"/>
            <path d="m32-30v24h18v-24zm1 1h16v22h-16zm.875 1v20h14.125v-20zm7.96875 4.680187-.03125 3.1875 2.3125-3.125 1.875.4375-2.40625 3.09375 2.375 3.28125-1.8125.59375-2.34375-3.40625v3.0625l-1.75.28125v-7.25zm-4 1.75c.01993 0 .04476.01525.0625.03125l1.3125.84375c.162531-.08815.323025-.156205.5-.21875v.71875c-.972495.437237-1.625 1.428536-1.625 2.5625 0 1.541819 1.237307 2.78125 2.78125 2.78125 1.086531 0 2.037425-.627395 2.5-1.53125.386778.565528.6875 1 .6875 1 .01309.02182.04039.04725.0625.03125l.125-.03125.46875.75c.02182.03346.02924.09591 0 .125l-.6875.6875c-.02996.03491-.08966.02473-.125 0l-1.28125-.84375c-.262822.154473-.542383.293545-.84375.375l-.34375 1.46875c-.0096.04073-.05273.0625-.09375.0625h-.96875c-.04233 0-.08502-.02177-.09375-.0625l-.3125-1.46875c-.292233-.07869-.556282-.196695-.8125-.34375l-1.3125.78125c-.03505.01745-.09591.02909-.125 0l-.6875-.6875c-.03025-.02909-.02327-.09009 0-.125l.84375-1.28125c-.157222-.275927-.2982-.558345-.375-.875l-1.4375-.34375c-.039855-.010182-.0625-.053023-.0625-.09375v-.96875c0-.04364.02134-.07775.0625-.09375l1.5-.3125c.08192-.2736.200332-.540523.34375-.78125l-.8125-1.3125c-.0208-.03346-.02895-.09591 0-.125l.6875-.6875c.01498-.0058.04257-.03125.0625-.03125z" transform="matrix(.68749969 0 0 .68749969 772.27817 1805.0571)"/>
        </g>
        <g transform="matrix(.72727028 0 0 .72727028 -574.15591 -1269.7672)">
            <path d="m789.4657 1781.6821h22.000002v21.999971h-22.000002z" opacity=".01"/>
            <path d="m4.1249442 2.7499644v16.4999926h13.7500458v-16.4999926zm1.3750155 1.3751323h10.9999953v13.7500463h-10.9999953z" transform="translate(789.4657 1781.6821)"/>
        </g>
        <path d="m4.9990194 29.997254v8h6.0000006l.00098-7.997254zm2.259694 1.653644v1.935238l1.39591-1.903514 1.142109.253802-1.459361 1.903514 1.459361 1.998689-1.142109.348979-1.39591-2.062141v1.871789l-1.078658.158627v-4.409808z"/>
        <path d="m7 5v12l8-.002v-11.998zm3.120115 3.0561434v2.4528936l1.769301-2.4126838 1.447611.3216914-1.849724 2.4126834 1.849724 2.533317-1.447611.442327-1.769301-2.613741v2.372473l-1.3671872.201058v-5.5893853z"/>
    </g>
</svg>
