<svg viewBox="0 0 274.43201 274.43201" xmlns="http://www.w3.org/2000/svg" xmlns:xlink="http://www.w3.org/1999/xlink">
    <radialGradient id="a" cx="130" cy="922.36218" gradientTransform="matrix(2.8181818 -.27272619 .18389093 1.9002138 -405.97768 -794.86883)" gradientUnits="userSpaceOnUse" r="55">
        <stop offset="0" stop-color="#202020"/>
        <stop offset="1" stop-color="#1a1a1a"/>
    </radialGradient>
    <radialGradient id="b" cx="49" cy="34.526299" gradientTransform="matrix(3.4242701 1.2494923 -1.112799 3.0496583 -80.368403 -131.99224)" gradientUnits="userSpaceOnUse" r="49">
        <stop offset="0" stop-color="#f2f2f2"/>
        <stop offset="1" stop-color="#f2f2f2" stop-opacity="0"/>
    </radialGradient>
    <linearGradient id="c" gradientUnits="userSpaceOnUse" x1="-19.81703" x2="150.18297" y1="712.44406" y2="932.44406">
        <stop offset="0" stop-color="#fff"/>
        <stop offset="1" stop-color="#fff" stop-opacity="0"/>
    </linearGradient>
    <filter id="d">
        <feGaussianBlur stdDeviation="2.97"/>
    </filter>
    <filter id="e" height="1.408" width="1.0544" x="-.0272" y="-.204">
        <feGaussianBlur stdDeviation="1.7000001"/>
    </filter>
    <g transform="translate(8.787 -787.86042)">
        <rect filter="url(#e)" height="19.999998" opacity=".2" rx="10" ry="8.005076" transform="matrix(1 0 0 1.1345196 -8.787 751.05831)" width="150.00002" x="63.786999" y="249.50177"/>
        <rect filter="url(#d)" height="256" opacity=".7" rx="10" ry="10.000009" width="140" x="59.976089" y="796.38812"/>
        <rect fill="#f2f2f2" height="256" rx="10" ry="10.000009" stroke="#6a6a6a" stroke-width=".5" width="140" x="60" y="796.36218"/>
        <rect fill="#111" height="220" rx=".000003" ry="0" width="120" x="70.000003" y="812.36219"/>
        <rect fill="url(#a)" height="210.00002" rx=".000003" ry="0" width="110" x="75" y="817.36218"/>
        <rect fill="#fff" height="5" opacity=".7" rx="3.000003" ry="2.5" width="40" x="110" y="803.3443"/>
        <rect fill="#111" height="5" rx="3.000003" ry="2.5" width="40" x="110" y="802.36219"/>
        <path d="m98.999998 805.84433a1.5 1.5 0 1 1 -3 0 1.5 1.5 0 1 1 3 0z" fill="#fff" opacity=".7"/>
        <path d="m99 804.86219a1.5 1.5 0 1 1 -3 0 1.5 1.5 0 1 1 3 0z" fill="#111"/>
        <path d="m18.0991.0201c-.1947.0201-.4053.0738-.5517.2207l-6.7689 6.7688c-.2843.2851-.319.7216-.1103 1.0667l7.9092 13.0594c-1.4044 2.3608-2.5448 4.8933-3.3477 7.5781 0 0-14.530751 3.0165-14.530751 3.0165-.404359.0836-.698949.4685-.698949.8829v9.5645c0 .4044.307536.7507.698949.8461l14.089351 3.4212c.7534 3.1084 1.9174 6.0828 3.4579 8.792l-8.1666 12.4339c-.2278.3473-.18337.8106.1103 1.1038l6.7689 6.7687c.2851.2842.7224.3199 1.0667.1103l12.8018-7.7619c2.5109 1.4495 5.2294 2.6109 8.0931 3.3844l2.9798 14.3471c.0835.405.432.699.846.699h9.5646c.4014 0 .7508-.27.846-.663l3.5316-14.42c2.9535-.7964 5.7382-1.9786 8.3139-3.4947 0 0 12.6178 8.277 12.6178 8.277.3479.2266.8087.1828 1.1036-.1103 0 0 6.7321-6.7689 6.7321-6.7689.2859-.2853.3565-.7224.1471-1.0668 0 0-4.5984-7.578-4.5984-7.578s-1.5083.4783-1.5083.4783c-.2178.0671-.4591-.0314-.5886-.2209 0 0-2.9047-4.2728-6.6952-9.822-4.5332 8.8706-13.7783 14.9354-24.4264 14.9354-15.1308 0-27.4061-12.2753-27.4061-27.4061 0-11.1298 6.6555-20.6892 16.1862-24.9782v-7.0631c-1.7346.6071-3.4103 1.3396-5.003 2.2072-.003-.0018.0029-.0351 0-.0367l-12.9121-8.4611c-.1737-.1135-.3572-.1304-.5519-.1103zm39.0307-17.2898s-17.2162 1.65541-17.2162 1.65541v70.92489s17.0323-2.575 17.0323-2.575v-30.2388s22.9183 33.5495 22.9183 33.5495 17.9518-5.7019 17.9518-5.7019-23.47-32.2621-23.47-32.2621 23.654-30.42257 23.654-30.42257-18.3198-4.193694-18.3198-4.193694-22.7343 30.422764-22.7343 30.422764.1839-31.1585.1839-31.1585z" fill="url(#b)" transform="matrix(.91709397 0 0 .91709397 85.055875 892.74267)"/>
        <rect fill="url(#c)" height="256" opacity=".5" rx="10" ry="10.000009" width="140" x="60.182972" y="796.44403"/>
    </g>
</svg>
