<svg height="493pt" preserveAspectRatio="xMidYMid meet" viewBox="0 0 493 493" width="493pt" xmlns="http://www.w3.org/2000/svg">
    <g fill="#fff" stroke="#000" stroke-width="17" transform="matrix(.1 0 0 -.1 0 493)">
        <path d="m30 2465v-2425h1820 1820v2425 2425h-1820-1820zm3340 0v-2125h-1520-1520v2125 2125h1520 1520z"/>
        <path d="m640 2465v-1815h1210 1210v1815 1815h-1210-1210zm952 535 3-360 255 346c140 191 258 350 261 355 5 8 389-71 432-89 15-6-26-64-261-371l-280-363 280-385c154-211 278-386 277-388-2-2-103-33-223-69-140-42-222-62-226-56s-121 179-261 385l-254 375-3-349-2-348-198-27c-108-15-205-30-214-32-17-5-18 40-18 848v854l173 16c94 8 191 16 214 16l43 2z"/>
    </g>
</svg>
