<?xml version="1.0" standalone="no"?>
<!DOCTYPE svg PUBLIC "-//W3C//DTD SVG 20010904//EN"
 "http://www.w3.org/TR/2001/REC-SVG-20010904/DTD/svg10.dtd">
<svg version="1.0" xmlns="http://www.w3.org/2000/svg"
 width="493.000000pt" height="493.000000pt" viewBox="0 0 493.000000 493.000000"
 preserveAspectRatio="xMidYMid meet">
<metadata>
Created by potrace 1.15, written by Peter Selinger 2001-2017
</metadata>
<g transform="translate(0.000000,493.000000) scale(0.100000,-0.100000)"
fill="white" stroke="black" stroke-width="17">
<path d="M30 2465 l0 -2425 1820 0 1820 0 0 2425 0 2425 -1820 0 -1820 0 0
-2425z m3340 0 l0 -2125 -1520 0 -1520 0 0 2125 0 2125 1520 0 1520 0 0 -2125z"/>
<path d="M640 2465 l0 -1815 1210 0 1210 0 0 1815 0 1815 -1210 0 -1210 0 0
-1815z m952 535 l3 -360 255 346 c140 191 258 350 261 355 5 8 389 -71 432
-89 15 -6 -26 -64 -261 -371 l-280 -363 280 -385 c154 -211 278 -386 277 -388
-2 -2 -103 -33 -223 -69 -140 -42 -222 -62 -226 -56 -4 6 -121 179 -261 385
l-254 375 -3 -349 -2 -348 -198 -27 c-108 -15 -205 -30 -214 -32 -17 -5 -18
40 -18 848 l0 854 173 16 c94 8 191 16 214 16 l43 2 2 -360z"/>
</g>
</svg>
