<svg height="32" width="32" xmlns="http://www.w3.org/2000/svg">
    <g transform="translate(-424.71429 -512.79071)">
        <text x="433.71429" y="550.04071"><tspan x="433.71429" y="550.04071"/></text>
        <circle cx="440.71429" cy="528.79077" fill="#2ecc71" r="13.999971"/>
        <g fill="#4d4d4d">
            <path d="m435.71428 520.79074v15h10v-15zm1 2h8v11h-8z"/>
            <path d="m440.71428 514.79074a14.000017 14.000017 0 0 0 -14 14 14.000017 14.000017 0 0 0 14 14 14.000017 14.000017 0 0 0 14-14 14.000017 14.000017 0 0 0 -14-14zm0 1a12.999987 12.999987 0 0 1 13 13 12.999987 12.999987 0 0 1 -13 13 12.999987 12.999987 0 0 1 -13-13 12.999987 12.999987 0 0 1 13-13z"/>
        </g>
    </g>
</svg>
