<svg height="32" width="32" xmlns="http://www.w3.org/2000/svg">
    <g transform="translate(-424.71429 -512.79071)">
        <text x="433.71429" y="550.04071"><tspan x="433.71429" y="550.04071"/></text>
        <g fill="#4d4d4d">
            <path d="m440.71715 514.79074a14.000017 14.000017 0 0 0 -14 14 14.000017 14.000017 0 0 0 14 14 14.000017 14.000017 0 0 0 14-14 14.000017 14.000017 0 0 0 -14-14zm0 1a12.999987 12.999987 0 0 1 13 13 12.999987 12.999987 0 0 1 -13 13 12.999987 12.999987 0 0 1 -13-13 12.999987 12.999987 0 0 1 13-13z"/>
            <path d="m431.71428 521.79074v12h1 7v1h-3v1h8v-1h-3v-1l7-.00004h1v-12h-1l-16 .00004zm1 1 16-.00004v10l-16 .00004z"/>
        </g>
    </g>
</svg>
