<svg height="32" width="32" xmlns="http://www.w3.org/2000/svg">
    <g transform="translate(-424.71429 -512.79071)">
        <text x="433.71429" y="550.04071"><tspan x="433.71429" y="550.04071"/></text>
        <circle cx="440.71713" cy="528.79071" fill="#2ecc71" r="13.999971"/>
        <g fill="#4d4d4d">
            <path d="m440.71717 514.79074a14.000017 14.000017 0 0 0 -14 14 14.000017 14.000017 0 0 0 14 14 14.000017 14.000017 0 0 0 14-14 14.000017 14.000017 0 0 0 -14-14zm0 1a12.999987 12.999987 0 0 1 13 13 12.999987 12.999987 0 0 1 -13 13 12.999987 12.999987 0 0 1 -13-13 12.999987 12.999987 0 0 1 13-13z"/>
            <path d="m432.71717 522.79071c-1.10802 0-1.00001.00003-1.00001.00003v12s-.10801-.00003 1.00001-.00003h16l.99999.00003.00001-12h-.00001zm.99999 1.00003h14v10h-14z"/>
        </g>
    </g>
</svg>
