<svg viewBox="0 0 22 22" xmlns="http://www.w3.org/2000/svg">
    <style type="text/css" id="current-color-scheme">
        .ColorScheme-PositiveText {
            color:#27ae60;
        }
        .ColorScheme-Text {
            color:#232629;
        }
    </style>
    <rect class="ColorScheme-PositiveText" fill="currentColor" height="22" rx="2" width="22"/>
    <path d="m2 .00000046c-1.10799999 0-1.99999999.89200002-1.99999999 2.00000004v17.9999995c0 1.108.892 2 1.99999999 2h18c1.108 0 2-.892 2-2v-17.9999995c0-1.10800002-.892-2.00000004-2-2.00000004zm0 1.00000004h18c.554 0 1 .446 1 1v17.9999995c0 .554-.446 1-1 1h-18c-.554 0-1-.446-1-1v-17.9999995c0-.554.446-1 1-1z" class="ColorScheme-Text" fill="currentColor" fill-opacity=".6"/>
    <path d="m3 3.9999603v11.0000397h1 6v2h-3v1h8v-1h-3v-2h6 1v-11.0000397h-1-14zm1 1h14v9.0000397h-14z" fill="#fff"/>
</svg>
