<svg viewBox="0 0 22 22" xmlns="http://www.w3.org/2000/svg">
    <style type="text/css" id="current-color-scheme">
        .ColorScheme-PositiveText {
            color:#27ae60;
        }
        .ColorScheme-Text {
            color:#232629;
        }
    </style>
    <path d="m2 .0000002c-1.10800001 0-2 .892-2 2v17.9999998c0 1.108.89199999 2 2 2h18c1.108 0 2-.892 2-2v-17.9999998c0-1.108-.892-2-2-2zm0 1h18c.554 0 1 .446 1 1v17.9999998c0 .554-.446 1-1 1h-18c-.554 0-1.00000004-.446-1.00000004-1v-17.9999998c0-.554.44600004-1 1.00000004-1z" class="ColorScheme-Text" fill="currentColor"/>
    <text x="9.000005" y="37.25"><tspan x="9.000005" y="37.25"/></text>
    <path d="m2 5v12h18v-12zm2 1h14v10h-14z" class="ColorScheme-Text" fill="currentColor"/>
</svg>
